<mxfile host="app.diagrams.net" modified="2024-06-01T21:26:09.065Z" agent="Mozilla/5.0 (Windows NT 10.0; Win64; x64) AppleWebKit/537.36 (KHTML, like Gecko) Chrome/125.0.0.0 Safari/537.36" version="24.4.13" etag="rUf0kYktOz4cCR68eusV" type="github">
  <diagram name="Page-1" id="Fou0Tystc8fCCgX0ioaj">
    <mxGraphModel>
      <root>
        <mxCell id="0" />
        <mxCell id="1" parent="0" />
      </root>
    </mxGraphModel>
  </diagram>
</mxfile>
